<svg xmlns="http://www.w3.org/2000/svg" x="0px" y="0px" width="32" height="32" viewBox="0 0 32 32">
    <path d="M 15 2 C 15 2.4731049 14.686378 3.2939287 13.990234 4.203125 C 13.294091 5.1123213 12.255656 6.1063664 10.998047 7.0371094 C 8.4828284 8.8985952 5.0921778 10.506336 1.8457031 11.011719 L 2.1542969 12.988281 C 5.8198222 12.417664 9.4307184 10.684795 12.1875 8.6445312 C 13.565891 7.6243993 14.729268 6.5266162 15.578125 5.4179688 C 15.75191 5.1909973 15.851912 4.9591513 16 4.7304688 C 16.148088 4.9591513 16.24809 5.1909972 16.421875 5.4179688 C 17.270732 6.5266161 18.434109 7.6243993 19.8125 8.6445312 C 22.569282 10.684795 26.180178 12.417664 29.845703 12.988281 L 30.154297 11.011719 C 26.907822 10.506336 23.517172 8.8985952 21.001953 7.0371094 C 19.744344 6.1063664 18.705909 5.1123213 18.009766 4.203125 C 17.313622 3.2939287 17 2.4731049 17 2 L 15 2 z M 24.84375 2.4179688 C 24.84375 2.4179688 24.371979 4.9364669 23.667969 6.2636719 L 25.435547 7.2011719 C 26.421537 5.3423768 26.816406 2.7539064 26.816406 2.7539062 L 24.84375 2.4179688 z M 5 14 L 5 28 L 27 28 L 27 14 L 25 14 L 25 26 L 7 26 L 7 14 L 5 14 z M 11.5 14 L 11.5 15 C 11.5 19.866667 10.529297 23.757812 10.529297 23.757812 L 12.470703 24.242188 C 12.470703 24.242188 13.287685 20.580213 13.421875 16 L 18.578125 16 C 18.712315 20.580213 19.529297 24.242188 19.529297 24.242188 L 21.470703 23.757812 C 21.470703 23.757813 20.5 19.866667 20.5 15 L 20.5 14 L 11.5 14 z"></path>
</svg>